<svg xmlns="http://www.w3.org/2000/svg" width="33.425" height="33.409" viewBox="0 0 33.425 33.409">
  <path id="Path_21710" data-name="Path 21710" d="M25.855,37.409H7.57A7.573,7.573,0,0,1,0,29.839V11.57A7.573,7.573,0,0,1,7.57,4H25.855a7.584,7.584,0,0,1,7.57,7.57V29.855A7.58,7.58,0,0,1,25.855,37.409ZM7.57,7.326A4.245,4.245,0,0,0,3.326,11.57V29.855A4.245,4.245,0,0,0,7.57,34.1H25.855A4.245,4.245,0,0,0,30.1,29.855V11.57a4.245,4.245,0,0,0-4.244-4.244H7.57Zm9.143,22.12a8.635,8.635,0,1,1,8.635-8.635A8.636,8.636,0,0,1,16.713,29.446Zm0-13.96a5.309,5.309,0,1,0,5.309,5.309A5.318,5.318,0,0,0,16.713,15.486Zm8.963-5.44a2.2,2.2,0,1,0,2.2,2.2A2.2,2.2,0,0,0,25.675,10.046Z" transform="translate(0 -4)" fill="#fff"/>
</svg>
