<svg xmlns="http://www.w3.org/2000/svg" width="38.706" height="37.862" viewBox="0 0 38.706 37.862">
  <g id="Group_676" data-name="Group 676" transform="translate(0 0)">
    <path id="Path_21711" data-name="Path 21711" d="M104.53,16.46H79.964A7.063,7.063,0,0,0,72.9,23.535v5.684a7.077,7.077,0,0,0,7.064,7.075H104.53a7.079,7.079,0,0,0,7.075-7.075V23.535A7.086,7.086,0,0,0,104.53,16.46ZM85.123,20.885H82.834V32.231h-2.2V20.885H78.354V18.957h6.769Zm6.451,11.358h-1.96V31.169a4.247,4.247,0,0,1-1.128.909,2.367,2.367,0,0,1-1.128.307,1.23,1.23,0,0,1-1.03-.438,2.1,2.1,0,0,1-.34-1.314V22.44h1.96v7.513a.874.874,0,0,0,.12.5.478.478,0,0,0,.405.153,1.075,1.075,0,0,0,.548-.208,2.735,2.735,0,0,0,.6-.526V22.44h1.96v9.8Zm7.108-2.026a2.462,2.462,0,0,1-.46,1.6,1.621,1.621,0,0,1-1.325.548,2.32,2.32,0,0,1-1.019-.208,2.607,2.607,0,0,1-.843-.668v.756H93.052V18.957h1.982v4.271a2.991,2.991,0,0,1,.843-.679,1.964,1.964,0,0,1,.909-.23,1.7,1.7,0,0,1,1.424.624,2.912,2.912,0,0,1,.493,1.829v5.443Zm6.79-2.64h-3.746v1.84a2.229,2.229,0,0,0,.186,1.073.739.739,0,0,0,.668.3.815.815,0,0,0,.679-.252,2.167,2.167,0,0,0,.2-1.117v-.449h2.015v.5a3.076,3.076,0,0,1-.745,2.267,2.915,2.915,0,0,1-2.2.756,2.666,2.666,0,0,1-2.07-.81A3.108,3.108,0,0,1,99.7,29.46v-4.4a2.764,2.764,0,0,1,.832-2.081,2.961,2.961,0,0,1,2.147-.8,2.767,2.767,0,0,1,2.07.745,2.931,2.931,0,0,1,.723,2.136Z" transform="translate(-72.9 1.568)" fill="#fff"/>
    <path id="Path_21712" data-name="Path 21712" d="M100.1,23.26a.767.767,0,0,0-.668.274,1.413,1.413,0,0,0-.208.876V25.4h1.73V24.41a1.391,1.391,0,0,0-.208-.876A.737.737,0,0,0,100.1,23.26Z" transform="translate(-70.393 2.215)" fill="#fff"/>
    <path id="Path_21713" data-name="Path 21713" d="M93.921,23.23a.965.965,0,0,0-.416.1,1.585,1.585,0,0,0-.405.3v6.1a1.873,1.873,0,0,0,.471.35,1.185,1.185,0,0,0,.471.11.619.619,0,0,0,.526-.208,1.1,1.1,0,0,0,.164-.679v-5.06a1.172,1.172,0,0,0-.208-.756A.738.738,0,0,0,93.921,23.23Z" transform="translate(-70.976 2.212)" fill="#fff"/>
    <path id="Path_21714" data-name="Path 21714" d="M82.547,14.632h2.475V8.565L87.914,0H85.395L83.85,5.849H83.7L82.087,0h-2.5l2.957,8.828Z" transform="translate(-72.263)" fill="#fff"/>
    <path id="Path_21715" data-name="Path 21715" d="M90.536,14.6a3.392,3.392,0,0,0,2.366-.789,2.805,2.805,0,0,0,.854-2.169V6.053a2.608,2.608,0,0,0-.865-2.015,3.222,3.222,0,0,0-2.245-.778,3.593,3.593,0,0,0-2.4.745A2.465,2.465,0,0,0,87.36,6v5.6a2.894,2.894,0,0,0,.865,2.19A3.248,3.248,0,0,0,90.536,14.6Zm-.92-8.685a.715.715,0,0,1,.252-.57,1.011,1.011,0,0,1,.657-.219,1.065,1.065,0,0,1,.712.219.732.732,0,0,1,.274.57v5.881a.891.891,0,0,1-.263.679,1.008,1.008,0,0,1-.712.252.862.862,0,0,1-.668-.241.958.958,0,0,1-.241-.69V5.91Z" transform="translate(-71.523 0.31)" fill="#fff"/>
    <path id="Path_21716" data-name="Path 21716" d="M96.363,14.451a2.757,2.757,0,0,0,1.281-.35,4.8,4.8,0,0,0,1.27-1.008v1.194h2.2V3.51h-2.2V11.7a3.082,3.082,0,0,1-.679.58,1.3,1.3,0,0,1-.613.23.521.521,0,0,1-.449-.175.887.887,0,0,1-.142-.548V3.51h-2.2v9.025a2.3,2.3,0,0,0,.383,1.446A1.438,1.438,0,0,0,96.363,14.451Z" transform="translate(-70.812 0.334)" fill="#fff"/>
  </g>
</svg>
